<?xml version="1.0" encoding="UTF-8"?>
<svg version="1.1" xmlns="http://www.w3.org/2000/svg" width="500" height="500">
<path d="M0 0 C165 0 330 0 500 0 C500 165 500 330 500 500 C335 500 170 500 0 500 C0 335 0 170 0 0 Z " fill="#FEFEFE" transform="translate(0,0)"/>
<path d="M0 0 C0.80276367 0.18643066 1.60552734 0.37286133 2.43261719 0.56494141 C6.67609473 1.55521085 10.83945198 2.69752172 15 4 C16.06863281 4.32871094 17.13726562 4.65742188 18.23828125 4.99609375 C37.92056965 11.29540648 59.24205436 21.71384247 69.33154297 40.70410156 C74.56975841 51.3030638 75.79569364 62.31412161 73.09375 73.87890625 C67.67518973 89.70040756 57.90918721 102.58697728 44 112 C43.34 112 42.68 112 42 112 C42.33 112.99 42.66 113.98 43 115 C43.07075212 117.69707091 43.09348468 120.36683277 43.0625 123.0625 C43.05798828 123.79533203 43.05347656 124.52816406 43.04882812 125.28320312 C43.0365789 127.18883222 43.0186618 129.09442291 43 131 C43 131.66 43 132.32 43 133 C45.64752004 130.42215154 47.94432065 128.08351902 50 125 C50.66 125 51.32 125 52 125 C51.54655595 129.87452354 50.52912227 132.56374937 47 136 C41.24169953 139.40797375 35.61196732 139.81270008 29 139 C27.9275 138.443125 26.855 137.88625 25.75 137.3125 C24.8425 136.879375 23.935 136.44625 23 136 C21.28300837 136.68031744 19.5661961 137.3738214 17.91796875 138.20703125 C14.32522887 139.69242065 10.78707754 139.7454353 7 139 C4.30670007 137.57675159 2.34253439 135.99364629 0 134 C-0.78375 134.825 -1.5675 135.65 -2.375 136.5 C-5.17228591 138.8321483 -6.7120933 139.22676344 -10.3125 138.9375 C-15.30988751 138.66898366 -19.32094347 139.94354969 -23.9375 141.6875 C-40.24957625 147.792119 -57.10564361 151.22206665 -74.18798828 154.4609375 C-76.54541175 154.91285546 -78.89603846 155.38667682 -81.24609375 155.875 C-103.80533762 160.30834168 -126.69742623 161.28986939 -149.625 161.375 C-150.58635864 161.38276459 -151.54771729 161.39052917 -152.53820801 161.39852905 C-171.71062575 161.52094545 -190.63440541 159.99111711 -205.25 146.1875 C-208.82650327 142.46372894 -211.09113598 138.77216005 -213 134 C-213.4125 133.071875 -213.825 132.14375 -214.25 131.1875 C-217.05564787 119.26349655 -213.90994078 107.26132842 -207.8671875 96.859375 C-202.70291667 88.95091005 -196.81458143 81.50787057 -190.1796875 74.78125 C-188.62854922 72.43913392 -188.93732961 70.7574971 -189 68 C-188.34 67.34 -187.68 66.68 -187 66 C-186.07058594 66.03867188 -185.14117187 66.07734375 -184.18359375 66.1171875 C-180.13154431 65.96803231 -179.02296645 64.82823792 -176.0625 62.125 C-172.83995717 59.27428903 -169.84140358 56.81802892 -166.09375 54.703125 C-157.26421274 49.71341558 -157.26421274 49.71341558 -152.34350586 41.14697266 C-151.51541417 37.99375181 -150.95764423 35.27294583 -151 32 C-152.84266695 29.66143232 -152.84266695 29.66143232 -155 28 C-155 27.34 -155 26.68 -155 26 C-171.67232969 34.75343416 -187.37155053 44.09406751 -202 56 C-200.18616608 60.11565361 -197.44360434 62.88152733 -194.36328125 66.09765625 C-193.91339844 66.72542969 -193.46351563 67.35320312 -193 68 C-193.495 69.485 -193.495 69.485 -194 71 C-194.99 71 -195.98 71 -197 71 C-198.9375 68.84765625 -198.9375 68.84765625 -201 66.0625 C-203.78506799 62.07644606 -203.78506799 62.07644606 -208 60 C-204.11421199 65.41307865 -204.11421199 65.41307865 -199.5625 70.25 C-198.7890625 71.11625 -198.7890625 71.11625 -198 72 C-198.3120569 75.86786318 -200.35702302 77.69983527 -203.0625 80.3125 C-203.87976563 81.10269531 -204.69703125 81.89289063 -205.5390625 82.70703125 C-208.27887139 85.25983731 -211.05754809 87.74924738 -213.90625 90.1796875 C-215.43394116 91.50786675 -216.93002604 92.87265431 -218.40625 94.2578125 C-225.36253227 100.76322462 -231.21505439 106.14313001 -241.0625 106.625 C-247.71591102 106.34494571 -251.76808147 103.90245111 -256.609375 99.5546875 C-260.71602536 94.96354468 -261.67741723 88.46822895 -261.4765625 82.515625 C-259.59478765 72.5823217 -249.4408738 65.16762323 -242.1953125 58.90234375 C-239.63396707 56.68281488 -237.09384622 54.44119144 -234.5625 52.1875 C-233.29599609 51.06408203 -233.29599609 51.06408203 -232.00390625 49.91796875 C-229.93751766 48.15581429 -229.93751766 48.15581429 -229 46 C-229.43570313 46.44472656 -229.87140625 46.88945312 -230.3203125 47.34765625 C-235.23138034 52.0142337 -235.23138034 52.0142337 -239.375 51.9375 C-242 51 -242 51 -243 50 C-243.125 47 -243.125 47 -243 44 C-240.5479248 41.5479248 -234.41568093 42.33469286 -231.02197266 42.25244141 C-226.67498502 42.35200396 -224.4883213 42.6698757 -220.8046875 45.16015625 C-215 51.64610129 -215 51.64610129 -215 55 C-214.34 54.67 -213.68 54.34 -213 54 C-214.40844718 50.78475695 -216.10344786 48.67816132 -218.625 46.25 C-219.25664062 45.63640625 -219.88828125 45.0228125 -220.5390625 44.390625 C-221.02117187 43.93171875 -221.50328125 43.4728125 -222 43 C-221.67 42.01 -221.34 41.02 -221 40 C-217.14896699 40.53675903 -215.68202413 42.11600923 -213.25 45.0625 C-212.32960938 46.16271484 -212.32960938 46.16271484 -211.390625 47.28515625 C-210.93171875 47.85105469 -210.4728125 48.41695312 -210 49 C-205.75043314 47.56287375 -202.83944703 45.44957554 -199.375 42.625 C-172.00945464 21.06378705 -138.980005 6.3513789 -105 -1 C-104.16307617 -1.19464844 -103.32615234 -1.38929688 -102.46386719 -1.58984375 C-69.98765741 -8.88894048 -32.24461255 -7.91819385 0 0 Z " fill="#FDFDFC" transform="translate(351,172)"/>
<path d="M0 0 C0.80276367 0.18643066 1.60552734 0.37286133 2.43261719 0.56494141 C6.67609473 1.55521085 10.83945198 2.69752172 15 4 C16.06863281 4.32871094 17.13726562 4.65742188 18.23828125 4.99609375 C37.92056965 11.29540648 59.24205436 21.71384247 69.33154297 40.70410156 C74.56975841 51.3030638 75.79569364 62.31412161 73.09375 73.87890625 C67.63903283 89.80598105 57.87022484 102.41101785 44 112 C42.515 112.495 42.515 112.495 41 113 C40.76026674 109.34406784 40.75268216 107.3883831 42 104 C44.30895622 101.50285299 46.6922827 99.35607581 49.2746582 97.15893555 C54.16476543 92.9778975 57.72575567 88.56447374 61 83 C61.75796875 81.81083984 61.75796875 81.81083984 62.53125 80.59765625 C67.52843162 71.58884827 67.75785256 59.87971736 65.23046875 49.98828125 C64.30890176 47.82571967 63.29990567 45.95431023 62 44 C61.34 42.9275 60.68 41.855 60 40.75 C59.34 39.8425 58.68 38.935 58 38 C57.4225 37.175 56.845 36.35 56.25 35.5 C46.28675544 24.42972827 30.85538198 18.42735194 17 14 C15.91976563 13.64164063 14.83953125 13.28328125 13.7265625 12.9140625 C-22.24552761 1.32983009 -65.08007892 -0.12781886 -102 8 C-102.8573877 8.18723633 -103.71477539 8.37447266 -104.59814453 8.56738281 C-140.20642938 16.62254864 -173.74536822 32.89252982 -202 56 C-200.18616608 60.11565361 -197.44360434 62.88152733 -194.36328125 66.09765625 C-193.91339844 66.72542969 -193.46351563 67.35320312 -193 68 C-193.495 69.485 -193.495 69.485 -194 71 C-194.99 71 -195.98 71 -197 71 C-198.9375 68.84765625 -198.9375 68.84765625 -201 66.0625 C-203.78506799 62.07644606 -203.78506799 62.07644606 -208 60 C-204.11421199 65.41307865 -204.11421199 65.41307865 -199.5625 70.25 C-198.7890625 71.11625 -198.7890625 71.11625 -198 72 C-198.3120569 75.86786318 -200.35702302 77.69983527 -203.0625 80.3125 C-203.87976563 81.10269531 -204.69703125 81.89289063 -205.5390625 82.70703125 C-208.27887139 85.25983731 -211.05754809 87.74924738 -213.90625 90.1796875 C-215.43394116 91.50786675 -216.93002604 92.87265431 -218.40625 94.2578125 C-225.36253227 100.76322462 -231.21505439 106.14313001 -241.0625 106.625 C-247.71591102 106.34494571 -251.76808147 103.90245111 -256.609375 99.5546875 C-260.71602536 94.96354468 -261.67741723 88.46822895 -261.4765625 82.515625 C-259.59478765 72.5823217 -249.4408738 65.16762323 -242.1953125 58.90234375 C-239.63396707 56.68281488 -237.09384622 54.44119144 -234.5625 52.1875 C-233.29599609 51.06408203 -233.29599609 51.06408203 -232.00390625 49.91796875 C-229.93751766 48.15581429 -229.93751766 48.15581429 -229 46 C-229.43570313 46.44472656 -229.87140625 46.88945312 -230.3203125 47.34765625 C-235.23138034 52.0142337 -235.23138034 52.0142337 -239.375 51.9375 C-242 51 -242 51 -243 50 C-243.125 47 -243.125 47 -243 44 C-240.5479248 41.5479248 -234.41568093 42.33469286 -231.02197266 42.25244141 C-226.67498502 42.35200396 -224.4883213 42.6698757 -220.8046875 45.16015625 C-215 51.64610129 -215 51.64610129 -215 55 C-214.34 54.67 -213.68 54.34 -213 54 C-214.40844718 50.78475695 -216.10344786 48.67816132 -218.625 46.25 C-219.25664062 45.63640625 -219.88828125 45.0228125 -220.5390625 44.390625 C-221.02117187 43.93171875 -221.50328125 43.4728125 -222 43 C-221.67 42.01 -221.34 41.02 -221 40 C-217.14896699 40.53675903 -215.68202413 42.11600923 -213.25 45.0625 C-212.32960938 46.16271484 -212.32960938 46.16271484 -211.390625 47.28515625 C-210.93171875 47.85105469 -210.4728125 48.41695312 -210 49 C-205.75043314 47.56287375 -202.83944703 45.44957554 -199.375 42.625 C-172.00945464 21.06378705 -138.980005 6.3513789 -105 -1 C-104.16307617 -1.19464844 -103.32615234 -1.38929688 -102.46386719 -1.58984375 C-69.98765741 -8.88894048 -32.24461255 -7.91819385 0 0 Z " fill="#FEAA29" transform="translate(351,172)"/>
<path d="M0 0 C2.875 -0.1875 2.875 -0.1875 6 0 C8.49295275 3.73942912 8.28733022 5.56163415 8 10 C7.22143555 13.2980957 7.22143555 13.2980957 6.13671875 16.67578125 C5.74419922 17.91650391 5.35167969 19.15722656 4.94726562 20.43554688 C4.52766503 21.72796893 4.10774138 23.02028616 3.6875 24.3125 C3.27835581 25.5927986 2.87014554 26.87339605 2.46289062 28.15429688 C1.67360727 30.63251826 0.88224738 33.11007942 0.08862305 35.58691406 C-0.87144323 38.5969447 -1.82319017 41.60848178 -2.75 44.62890625 C-2.97816406 45.37084229 -3.20632813 46.11277832 -3.44140625 46.87719727 C-4.32367209 50.23003883 -4.68067958 53.55133948 -5 57 C-1.51400668 56.54086322 -1.51400668 56.54086322 2 55 C3.02410122 52.17313555 3.02410122 52.17313555 3.49902344 50.05737305 C4.02442097 47.8997098 4.68836156 45.83293353 5.40234375 43.73046875 C5.65161621 42.99103027 5.90088867 42.2515918 6.15771484 41.48974609 C6.41504395 40.73000488 6.67237305 39.97026367 6.9375 39.1875 C9.07747144 32.82482505 11.15117503 26.45466962 13 20 C18.875 20.875 18.875 20.875 20 22 C20.48287396 28.62442718 19.08116106 33.87214222 17 40.125 C14.38329692 47.87617855 14.38329692 47.87617855 14 56 C15.65 56 17.3 56 19 56 C18.95359375 55.16855469 18.9071875 54.33710938 18.859375 53.48046875 C18.82328125 52.39378906 18.7871875 51.30710938 18.75 50.1875 C18.70359375 49.10855469 18.6571875 48.02960938 18.609375 46.91796875 C19 44 19 44 20.890625 42.11328125 C23 41 23 41 25 41 C25.33 41.99 25.66 42.98 26 44 C26.41362793 43.19256348 26.82725586 42.38512695 27.25341797 41.55322266 C28.78975667 38.55863491 30.32949693 35.56584868 31.87158203 32.57421875 C32.53832046 31.27902662 33.20369493 29.9831314 33.86767578 28.68652344 C34.82226626 26.82300301 35.78173227 24.96206558 36.7421875 23.1015625 C37.3182373 21.98088379 37.89428711 20.86020508 38.48779297 19.70556641 C40 17 40 17 42 15 C45.625 14.875 45.625 14.875 49 15 C49.12684284 20.58108484 49.12684284 20.58108484 48.40625 22.9609375 C47.90303582 25.48668562 48.41408573 26.53706696 49.4375 28.875 C52.40642021 37.10081562 52.14753063 46.85345014 49 55 C48.505 55.99 48.505 55.99 48 57 C52.74839618 55.64331538 55.27147436 52.96857718 58 49 C59.483032 45.76235893 59.483032 45.76235893 60.51171875 42.24609375 C60.81610115 41.28176674 60.81610115 41.28176674 61.12663269 40.29795837 C63.60884844 32.29141914 65.71231464 24.17562815 67.8125 16.0625 C68.22284838 14.49271851 68.63365359 12.92305636 69.04492188 11.35351562 C70.03519217 7.57035831 71.01936239 3.78566511 72 0 C76.7734375 -0.1328125 76.7734375 -0.1328125 78.8125 1.0625 C81.20678669 4.96896776 80.24582953 8.8697493 79.3203125 13.125 C78.58479628 16.09508453 77.81366605 19.05046057 77 22 C77.55429687 21.50113281 78.10859375 21.00226563 78.6796875 20.48828125 C81.52200838 18.66517645 82.8199673 18.76820481 86.125 19.1875 C86.99382812 19.28417969 87.86265625 19.38085938 88.7578125 19.48046875 C91 20 91 20 93 22 C94.4168486 29.65098245 92.16482913 36.79658914 89.77905273 43.98461914 C88.42124913 48.14026245 87.72134732 51.56245613 88 56 C91.34378592 56.38483922 91.34378592 56.38483922 95 55 C97.18132184 51.5228434 98.62119086 47.85685321 100 44 C100.99 44.33 101.98 44.66 103 45 C102.44725065 51.77117958 100.46860637 56.15736236 95.9375 61.375 C92.80492561 64.00232045 89.94801833 64.17949967 86 64.25 C85.13375 64.27578125 84.2675 64.3015625 83.375 64.328125 C81 64 81 64 79.2265625 62.81640625 C76.34781907 58.55329894 77.184696 52.87086502 78 48 C79.89238685 40.53602511 82.42949101 33.25348415 85 26 C79.36506305 27.55176289 77.44125889 29.1843442 74.4453125 34.046875 C71.49225519 40.08068939 69.77896929 46.54192023 68 53 C67.67773438 54.14726562 67.35546875 55.29453125 67.0234375 56.4765625 C66.33122181 58.98018372 65.65501726 61.48643782 65 64 C62.625 63.75 62.625 63.75 60 63 C58.6875 60.9375 58.6875 60.9375 58 59 C57.45730469 59.27714844 56.91460937 59.55429688 56.35546875 59.83984375 C55.64003906 60.20207031 54.92460937 60.56429687 54.1875 60.9375 C53.47980469 61.29714844 52.77210938 61.65679687 52.04296875 62.02734375 C47.743568 64.07428598 43.85716186 64.21613119 39.1875 64.25 C38.48818359 64.270625 37.78886719 64.29125 37.06835938 64.3125 C32.23950842 64.34863733 29.17250372 63.34431282 25 61 C22.60783443 61.21107343 21.29093394 61.82336154 19.25 63.0625 C15.7284065 64.52983062 12.80780818 64.2417656 9 64 C8.01 63.34 7.02 62.68 6 62 C6 61.34 6 60.68 6 60 C5.05125 60.66 4.1025 61.32 3.125 62 C-1.42104802 64.59245101 -5.88144847 64.92579019 -11 64 C-13.625 62 -13.625 62 -15 60 C-18.45204271 61.3228768 -18.45204271 61.3228768 -21.7109375 63.046875 C-24.96661783 64.40248251 -27.86042027 64.33992435 -31.375 64.375 C-32.66148437 64.40335937 -33.94796875 64.43171875 -35.2734375 64.4609375 C-40.36791489 63.83080298 -43.45421322 61.75899875 -46.8125 57.9375 C-49.99684957 52.74198229 -49.59938787 46.87265416 -49 41 C-46.66412531 32.39312562 -43.6341379 25.42043511 -36.375 20.0625 C-31.43504477 18.50732891 -27.02335434 18.85311545 -22 20 C-19.05087165 21.82845957 -17.53527823 22.92944355 -16 26 C-15.92629215 33.10543694 -17.72572497 39.63802117 -22.75 44.796875 C-26.75682938 48.30285071 -29.2025009 50.13996427 -34.625 50.0625 C-35.85089844 50.04896484 -35.85089844 50.04896484 -37.1015625 50.03515625 C-37.72804687 50.02355469 -38.35453125 50.01195312 -39 50 C-37.13433512 53.62793998 -37.13433512 53.62793998 -34 56 C-27.94747556 56.51426678 -21.92175593 56.96141331 -17 53 C-13.90196405 47.37380092 -11.93785036 41.18138173 -10.0625 35.0625 C-9.68399902 33.84675293 -9.68399902 33.84675293 -9.29785156 32.60644531 C-6.88144391 24.76903781 -4.68437372 16.87363021 -2.53710938 8.95898438 C-1.7163342 5.96539347 -0.85893454 2.9828454 0 0 Z " fill="#4863E0" transform="translate(281,193)"/>
<path d="M0 0 C0.598125 0.226875 1.19625 0.45375 1.8125 0.6875 C1.8125 2.3375 1.8125 3.9875 1.8125 5.6875 C2.4725 5.3575 3.1325 5.0275 3.8125 4.6875 C7.375 4.5625 7.375 4.5625 10.8125 4.6875 C11.3075 5.1825 11.3075 5.1825 11.8125 5.6875 C11.38920438 11.40199085 10.09030294 16.59677353 8.43359375 22.07421875 C7.80693225 24.71092656 7.70065427 26.98861394 7.8125 29.6875 C9.4625 29.6875 11.1125 29.6875 12.8125 29.6875 C12.91046875 29.03265625 13.0084375 28.3778125 13.109375 27.703125 C14.39856027 19.83464938 16.22447063 11.86355874 19.8125 4.6875 C21.4625 5.0175 23.1125 5.3475 24.8125 5.6875 C25.38718629 11.8653776 23.6619834 16.86489454 21.6875 22.69921875 C20.62515901 25.80834432 20.62515901 25.80834432 20.8125 29.6875 C23.55610862 29.40367842 24.58826696 28.95657965 26.375 26.8125 C27.7042728 23.92277652 28.47275242 21.32138155 29.25 18.25 C30.71391193 12.58496581 32.58042745 9.16758061 36.5 4.8125 C40.20053104 3.01224166 43.78563486 3.03729058 47.8125 3.6875 C50.375 5.25 50.375 5.25 51.8125 7.6875 C52.76292026 13.17881705 51.28268273 16.53479133 48.234375 20.953125 C46.30398174 23.30778051 44.65518113 24.57816102 41.8125 25.6875 C38.5 25.875 38.5 25.875 35.8125 25.6875 C37.17733958 27.89558542 37.17733958 27.89558542 39.8125 29.6875 C43.1705469 30.04541096 46.44786357 29.91865823 49.8125 29.6875 C49.503125 27.769375 49.503125 27.769375 49.1875 25.8125 C48.8359375 23.6328125 48.8359375 23.6328125 48.8125 21.6875 C49.4725 21.0275 50.1325 20.3675 50.8125 19.6875 C52.1325 19.6875 53.4525 19.6875 54.8125 19.6875 C56.75461703 17.22901578 56.75461703 17.22901578 58.375 14.0625 C58.95378906 13.01835937 59.53257812 11.97421875 60.12890625 10.8984375 C61.26626928 8.72926717 62.37773129 6.54634747 63.46484375 4.3515625 C64.8125 1.6875 64.8125 1.6875 65.8125 0.6875 C67.47867115 0.64686168 69.14638095 0.644779 70.8125 0.6875 C70.80089844 1.31398438 70.78929687 1.94046875 70.77734375 2.5859375 C70.76832031 3.40320313 70.75929688 4.22046875 70.75 5.0625 C70.73839844 5.87460937 70.72679687 6.68671875 70.71484375 7.5234375 C70.66783666 9.73687142 70.66783666 9.73687142 71.8125 11.6875 C71.88459087 14.36351297 71.90539601 17.01265091 71.875 19.6875 C71.87048828 20.42484375 71.86597656 21.1621875 71.86132812 21.921875 C71.84905319 23.84377972 71.83113867 25.76564646 71.8125 27.6875 C71.8125 28.3475 71.8125 29.0075 71.8125 29.6875 C74.46002004 27.10965154 76.75682065 24.77101902 78.8125 21.6875 C79.4725 21.6875 80.1325 21.6875 80.8125 21.6875 C80.35905595 26.56202354 79.34162227 29.25124937 75.8125 32.6875 C70.05419953 36.09547375 64.42446732 36.50020008 57.8125 35.6875 C56.74 35.130625 55.6675 34.57375 54.5625 34 C53.655 33.566875 52.7475 33.13375 51.8125 32.6875 C50.09550837 33.36781744 48.3786961 34.0613214 46.73046875 34.89453125 C43.13772887 36.37992065 39.59957754 36.4329353 35.8125 35.6875 C33.11920007 34.26425159 31.15503439 32.68114629 28.8125 30.6875 C27.94625 31.5125 27.08 32.3375 26.1875 33.1875 C23.76697217 35.2027036 22.93245333 35.67070653 19.6875 36.125 C16.96040518 35.71000731 15.14673835 35.12395437 12.8125 33.6875 C11.8225 34.3475 10.8325 35.0075 9.8125 35.6875 C6.8125 36.0625 6.8125 36.0625 3.8125 35.6875 C1.02774968 33.45969975 0.83181895 31.83653193 0.375 28.3125 C0.58085232 21.94318692 2.91523926 15.71807877 4.8125 9.6875 C3.1625 9.6875 1.5125 9.6875 -0.1875 9.6875 C-0.32478516 10.82058594 -0.32478516 10.82058594 -0.46484375 11.9765625 C-1.47163756 17.14658476 -3.1199523 22.0593833 -4.75 27.0625 C-5.07935547 28.08472656 -5.40871094 29.10695313 -5.74804688 30.16015625 C-6.55745878 32.67050622 -7.37071149 35.17954244 -8.1875 37.6875 C-9.55648437 37.19443359 -9.55648437 37.19443359 -10.953125 36.69140625 C-14.5217821 35.58374336 -17.47346016 35.61607616 -21.1875 35.6875 C-21.8475 35.3575 -22.5075 35.0275 -23.1875 34.6875 C-23.1875 34.0275 -23.1875 33.3675 -23.1875 32.6875 C-23.88875 33.1825 -24.59 33.6775 -25.3125 34.1875 C-28.66071887 35.9343968 -30.4633163 36.24216566 -34.1875 35.6875 C-36.5625 33.6875 -36.5625 33.6875 -38.1875 31.6875 C-38.5175 32.161875 -38.8475 32.63625 -39.1875 33.125 C-42.20408161 35.48170438 -45.4030473 35.83761399 -49.1875 35.6875 C-51.40751715 34.18361741 -52.00049258 33.06151485 -53.1875 30.6875 C-53.7001293 24.52793853 -52.14686753 19.55308175 -50.1875 13.75 C-49.90132813 12.87537109 -49.61515625 12.00074219 -49.3203125 11.09960938 C-48.61848661 8.9590404 -47.90741611 6.8220385 -47.1875 4.6875 C-45.5375 4.6875 -43.8875 4.6875 -42.1875 4.6875 C-41.04396149 9.50049435 -41.44491534 12.47862751 -43.0625 17.125 C-44.5813632 21.70253944 -45.74148128 25.89279874 -46.1875 30.6875 C-43.73118999 30.19202457 -43.73118999 30.19202457 -41.1875 28.6875 C-39.56505344 25.62981225 -38.51372653 22.72565734 -37.48046875 19.4375 C-35.63620962 13.59898981 -33.78084607 8.73487848 -28.8125 4.8125 C-25.70147678 3.47920433 -23.54016617 3.31498154 -20.1875 3.6875 C-19.5275 4.3475 -18.8675 5.0075 -18.1875 5.6875 C-17.8575 5.0275 -17.5275 4.3675 -17.1875 3.6875 C-13.3125 4.5625 -13.3125 4.5625 -12.1875 5.6875 C-12.58741385 11.18631547 -13.82722405 16.03488518 -15.48828125 21.27734375 C-16.39785782 24.41258814 -16.83520389 27.44637579 -17.1875 30.6875 C-13.80985661 29.75398047 -12.48279776 29.19034555 -10.67578125 26.11328125 C-10.28777344 25.08589844 -9.89976562 24.05851562 -9.5 23 C-9.09007812 21.91976563 -8.68015625 20.83953125 -8.2578125 19.7265625 C-7.90460938 18.72367187 -7.55140625 17.72078125 -7.1875 16.6875 C-6.81238281 15.64722656 -6.81238281 15.64722656 -6.4296875 14.5859375 C-5.44550737 11.55022696 -5.19647164 9.14920182 -5.25 5.9375 C-5.1875 2.6875 -5.1875 2.6875 -3.9375 0.6875 C-2.1875 -0.3125 -2.1875 -0.3125 0 0 Z " fill="#4B66E1" transform="translate(322.1875,275.3125)"/>
<path d="M0 0 C1.31864637 2.63729274 0.90261337 3.56856724 0.0625 6.375 C-3.11143373 14.07678324 -10.45988042 17.94929764 -17.02148438 22.57128906 C-29.87412015 31.85233849 -40.23977242 44.69774981 -47 59 C-47.33773437 59.63679688 -47.67546875 60.27359375 -48.0234375 60.9296875 C-51.3790521 68.10269852 -51.10822135 77.14194792 -49.37890625 84.72265625 C-46.57983516 91.97536046 -41.35503108 96.53814921 -34.390625 99.73046875 C-24.60760203 103.90272957 -15.70610324 105.15630501 -5.109375 105.203125 C-4.05988174 105.21009399 -3.01038849 105.21706299 -1.92909241 105.22424316 C1.46397909 105.24164345 4.85688566 105.24796929 8.25 105.25 C9.40448639 105.25100708 10.55897278 105.25201416 11.7484436 105.25305176 C28.71513387 105.24301116 45.22158924 104.70214106 62 102 C64.05459176 101.69466757 66.10928107 101.38999093 68.1640625 101.0859375 C79.12649686 99.40380218 89.93632276 97.26938717 100.6965332 94.57470703 C113.10722582 91.55361291 113.10722582 91.55361291 118 94 C118.26554688 92.72253906 118.53109375 91.44507813 118.8046875 90.12890625 C119.95251847 84.96366687 121.49383641 79.96757146 123.125 74.9375 C123.40214844 74.07189453 123.67929687 73.20628906 123.96484375 72.31445312 C124.63968962 70.2084686 125.31811341 68.10371313 126 66 C127.65 66 129.3 66 131 66 C130.86722656 66.59167969 130.73445312 67.18335938 130.59765625 67.79296875 C130.23259935 69.42639853 129.87075561 71.06054893 129.51171875 72.6953125 C129.15059264 74.32175835 128.76978195 75.943894 128.375 77.5625 C127.61821464 82.48160483 127.14547393 86.71821089 130 91 C134.20417542 91.4671306 137.19788277 90.78923164 141 89 C141.33 89.66 141.66 90.32 142 91 C121.87498558 98.35867229 101.86040643 103.47009003 80.81201172 107.4609375 C78.45458825 107.91285546 76.10396154 108.38667682 73.75390625 108.875 C51.19466238 113.30834168 28.30257377 114.28986939 5.375 114.375 C3.93296204 114.38664688 3.93296204 114.38664688 2.46179199 114.39852905 C-16.71062575 114.52094545 -35.63440541 112.99111711 -50.25 99.1875 C-53.82650327 95.46372894 -56.09113598 91.77216005 -58 87 C-58.4125 86.071875 -58.825 85.14375 -59.25 84.1875 C-62.05564787 72.26349655 -58.90994078 60.26132842 -52.8671875 49.859375 C-47.70291667 41.95091005 -41.81458143 34.50787057 -35.1796875 27.78125 C-33.62854922 25.43913392 -33.93732961 23.7574971 -34 21 C-33.34 20.34 -32.68 19.68 -32 19 C-31.07058594 19.03867188 -30.14117187 19.07734375 -29.18359375 19.1171875 C-25.13154431 18.96803231 -24.02296645 17.82823792 -21.0625 15.125 C-16.51708754 11.17601597 -11.84669113 7.74038709 -6.8125 4.4375 C-5.80425171 3.77548584 -5.80425171 3.77548584 -4.77563477 3.10009766 C-3.18680604 2.06204914 -1.59385893 1.03030827 0 0 Z " fill="#FEAB2B" transform="translate(196,219)"/>
<path d="M0 0 C4.17118064 0.10961552 6.45349978 0.3673485 9.99316406 2.72094727 C12.24301692 5.28112465 14.13393802 7.89325512 16.00878906 10.73657227 C17.17740721 12.08648547 18.36265987 13.42236167 19.57128906 14.73657227 C22.00878906 17.73657227 22.00878906 17.73657227 22.00878906 19.73657227 C22.99878906 20.06657227 23.98878906 20.39657227 25.00878906 20.73657227 C26.79785156 22.44360352 26.79785156 22.44360352 28.63378906 24.54907227 C29.24480469 25.23614258 29.85582031 25.92321289 30.48535156 26.63110352 C32.99362292 30.09766316 32.99362292 30.09766316 33.00878906 32.73657227 C31.20019531 35.06860352 31.20019531 35.06860352 28.57128906 37.54907227 C27.64445312 38.43079102 26.71761719 39.31250977 25.76269531 40.22094727 C22.89687468 42.83880328 20.02328319 45.43562958 17.06738281 47.95141602 C15.55189897 49.26560219 14.06933041 50.61798306 12.60644531 51.99047852 C5.64929436 58.49739782 -0.20444105 63.87961301 -10.05371094 64.36157227 C-16.70712196 64.08151798 -20.75929241 61.63902337 -25.60058594 57.29125977 C-29.7072363 52.70011694 -30.66862817 46.20480121 -30.46777344 40.25219727 C-28.58599859 30.31889396 -18.43208474 22.90419549 -11.18652344 16.63891602 C-8.625178 14.41938714 -6.08505716 12.1777637 -3.55371094 9.92407227 C-2.709375 9.17512695 -1.86503906 8.42618164 -0.99511719 7.65454102 C1.0712714 5.89238655 1.0712714 5.89238655 2.00878906 3.73657227 C1.57308594 4.18129883 1.13738281 4.62602539 0.68847656 5.08422852 C-4.22259128 9.75080596 -4.22259128 9.75080596 -8.36621094 9.67407227 C-10.99121094 8.73657227 -10.99121094 8.73657227 -11.99121094 7.73657227 C-12.11621094 4.73657227 -12.11621094 4.73657227 -11.99121094 1.73657227 C-9.53756407 -0.7170746 -3.3937882 0.06685137 0 0 Z " fill="#F87106" transform="translate(119.9912109375,214.263427734375)"/>
<path d="M0 0 C4.45778449 4.7652179 4.34604595 10.19731883 4.27734375 16.44921875 C3.20020822 30.23958767 -1.47556109 43.76197286 -11.80078125 53.33984375 C-17.47159388 57.62065258 -23.8984948 59.77009603 -31.015625 59.37890625 C-34.33827924 58.74446243 -35.91099156 57.62810739 -38 55 C-38.60811391 48.73807027 -36.96446046 43.19399221 -35.3125 37.1875 C-35.04646973 36.18154785 -34.78043945 35.1755957 -34.50634766 34.13916016 C-33.21284776 29.28373769 -31.85392507 24.46179366 -30.34765625 19.66796875 C-30.09910889 18.85497314 -29.85056152 18.04197754 -29.59448242 17.2043457 C-29.12574666 15.68679975 -28.63595663 14.17554809 -28.12231445 12.67260742 C-27.36216639 10.39052404 -27.36216639 10.39052404 -27 7 C-28.84218829 4.19886808 -28.84218829 4.19886808 -31 2 C-30.67 1.01 -30.34 0.02 -30 -1 C-20.15691258 -3.54015159 -9.07078662 -5.39771047 0 0 Z " fill="#4863DF" transform="translate(227,198)"/>
<path d="M0 0 C1.1034375 -0.03738281 2.206875 -0.07476562 3.34375 -0.11328125 C7.17542159 0.40361504 8.76414971 1.64108097 11.5 4.3125 C14.21014222 9.73278444 12.905843 17.76437593 11.375 23.4375 C8.72795909 31.08313908 5.13051949 38.5367621 -2.20703125 42.5390625 C-6.50861526 43.99002269 -11.05345413 44.2107921 -15.5 43.3125 C-17.5 40.3125 -17.5 40.3125 -17.2109375 37.48095703 C-16.54581926 34.51670409 -15.86946676 31.56253417 -15.125 28.6171875 C-14.73054687 27.04904297 -14.73054687 27.04904297 -14.328125 25.44921875 C-14.05484375 24.37285156 -13.7815625 23.29648437 -13.5 22.1875 C-13.09007812 20.56134766 -13.09007812 20.56134766 -12.671875 18.90234375 C-12.16514063 16.89279423 -11.65743759 14.88348855 -11.1484375 12.87451172 C-10.59506908 10.68812309 -10.04563455 8.50082915 -9.5 6.3125 C-10.16 5.9825 -10.82 5.6525 -11.5 5.3125 C-11.5 3.9925 -11.5 2.6725 -11.5 1.3125 C-7.63900055 0.42648707 -3.95938921 0.08788364 0 0 Z " fill="#4965E2" transform="translate(258.5,266.6875)"/>
<path d="M0 0 C0.70125 0.144375 1.4025 0.28875 2.125 0.4375 C1.4375 3.25 1.4375 3.25 0.125 6.4375 C-1.0196875 7.118125 -1.0196875 7.118125 -2.1875 7.8125 C-10.61844503 12.91028071 -12.37524235 24.55462997 -14.875 33.4375 C-15.19855469 34.58605469 -15.52210938 35.73460937 -15.85546875 36.91796875 C-16.54505962 39.42056847 -17.22040482 41.9255575 -17.875 44.4375 C-21.69083379 43.78570749 -23.90381405 42.96851025 -26.875 40.4375 C-27.3390625 40.72625 -27.803125 41.015 -28.28125 41.3125 C-33.47005085 44.1005124 -38.21710463 44.84813697 -44.0625 44.875 C-44.73925781 44.88466797 -45.41601562 44.89433594 -46.11328125 44.90429688 C-50.765394 44.82676166 -53.84378408 43.66449373 -57.875 41.4375 C-60.26716557 41.64857343 -61.58406606 42.26086154 -63.625 43.5 C-67.1465935 44.96733062 -70.06719182 44.6792656 -73.875 44.4375 C-74.865 43.7775 -75.855 43.1175 -76.875 42.4375 C-76.875 41.7775 -76.875 41.1175 -76.875 40.4375 C-77.82375 41.0975 -78.7725 41.7575 -79.75 42.4375 C-84.29604802 45.02995101 -88.75644847 45.36329019 -93.875 44.4375 C-96.5 42.4375 -96.5 42.4375 -97.875 40.4375 C-101.32704271 41.7603768 -101.32704271 41.7603768 -104.5859375 43.484375 C-107.84161783 44.83998251 -110.73542027 44.77742435 -114.25 44.8125 C-115.53648437 44.84085937 -116.82296875 44.86921875 -118.1484375 44.8984375 C-123.16093613 44.27844291 -126.05489941 42.13207641 -129.6875 38.75 C-131.52847937 35.16493492 -131.62834693 31.4179703 -131.875 27.4375 C-131.215 28.4275 -130.555 29.4175 -129.875 30.4375 C-127.4506665 33.75075578 -125.73932831 35.98918872 -121.875 37.4375 C-113.55011918 38.25385091 -106.84321073 38.3469212 -99.875 33.4375 C-96.875 34.4375 -96.875 34.4375 -95.4921875 35.9765625 C-92.75937478 38.44533534 -89.84069572 37.83455907 -86.3203125 37.7421875 C-83.26751805 37.36180736 -81.31951643 36.27088732 -78.875 34.4375 C-78.215 34.4375 -77.555 34.4375 -76.875 34.4375 C-76.50375 34.9325 -76.1325 35.4275 -75.75 35.9375 C-73.22612493 37.95660005 -71.01938829 37.8442392 -67.8671875 37.74609375 C-65.1097633 37.31896333 -63.20101528 35.92356532 -60.875 34.4375 C-58.49666312 34.66046908 -56.8841562 35.43310569 -54.734375 36.46484375 C-51.17583058 37.67533222 -47.84297228 37.8194936 -44.125 37.8125 C-43.41778809 37.81378906 -42.71057617 37.81507813 -41.98193359 37.81640625 C-36.83295498 37.71255337 -32.95267708 36.80115058 -28.4765625 34.3125 C-26.875 33.4375 -26.875 33.4375 -24.875 33.4375 C-24.194375 34.3965625 -24.194375 34.3965625 -23.5 35.375 C-21.66415127 37.7051157 -20.74590587 38.04151298 -17.875 38.4375 C-17.74738281 37.59703125 -17.61976563 36.7565625 -17.48828125 35.890625 C-11.42275686 1.73824561 -11.42275686 1.73824561 0 0 Z " fill="#F9D8A7" transform="translate(363.875,218.5625)"/>
<path d="M0 0 C4.51537198 -0.36611124 4.51537198 -0.36611124 6.61328125 1.21875 C9.2611751 4.6199883 9.12927759 8.82002451 9 13 C8.2696239 15.898244 7.26414624 18.26944412 6 21 C2.27091669 20.49800802 -1.36147686 19.95792977 -5 19 C-5.23783203 20.0209375 -5.23783203 20.0209375 -5.48046875 21.0625 C-7.28619491 28.56474349 -9.46957195 35.89295856 -11.81640625 43.23828125 C-12.60992185 45.76024669 -13.34660402 48.30075348 -14.02734375 50.85546875 C-15 54 -15 54 -17 56 C-20.125 56.125 -20.125 56.125 -23 56 C-23.25690954 49.92181248 -22.45943639 45.05381353 -20.6640625 39.265625 C-20.42464935 38.46517761 -20.18523621 37.66473022 -19.93856812 36.84002686 C-19.43423047 35.16116919 -18.92468186 33.48386885 -18.41015625 31.80810547 C-17.62392383 29.24649375 -16.8536062 26.68051048 -16.0859375 24.11328125 C-15.59206106 22.4762861 -15.09730005 20.8395575 -14.6015625 19.203125 C-14.3712735 18.43953674 -14.1409845 17.67594849 -13.90371704 16.88922119 C-12.84230098 13.44254538 -11.77405661 10.15089005 -10 7 C-7.36 7.33 -4.72 7.66 -2 8 C-1.34 5.36 -0.68 2.72 0 0 Z " fill="#F7D4A2" transform="translate(299,194)"/>
<path d="M0 0 C3.05079478 -0.28781083 5.95706395 -0.41543631 9 0 C11.80407362 2.71910169 11.96237527 4.64883584 12.375 8.5 C11.77835553 21.22046001 7.37831386 34.38793335 -2.0625 43.25 C-5.21823669 45.94538609 -7.90435039 46.51200771 -12 47 C-8.95428913 33.41726455 -5.3642037 19.99669086 -1.69262695 6.57104492 C-1.1039523 4.385873 -0.53963423 2.19770654 0 0 Z " fill="#FAF6F1" transform="translate(210,203)"/>
<path d="M0 0 C1.16080078 0.00451172 2.32160156 0.00902344 3.51757812 0.01367188 C6.36593934 0.02539353 9.21419222 0.0418024 12.0625 0.0625 C11.7325 2.0425 11.4025 4.0225 11.0625 6.0625 C9.37060547 6.10117188 9.37060547 6.10117188 7.64453125 6.140625 C-7.1980035 6.62378873 -21.69843147 8.77153746 -35.9375 13.0625 C-36.2675 10.4225 -36.5975 7.7825 -36.9375 5.0625 C-34.25089217 4.41275795 -31.56331326 3.76761582 -28.875 3.125 C-28.12283203 2.94259766 -27.37066406 2.76019531 -26.59570312 2.57226562 C-17.63371101 0.43845798 -9.19922768 -0.06798747 0 0 Z " fill="#FEAC2E" transform="translate(266.9375,199.9375)"/>
<path d="M0 0 C2.05078125 0.03255208 4.1015625 0.06510417 6.15234375 0.09765625 C6.48234375 2.07765625 6.81234375 4.05765625 7.15234375 6.09765625 C5.83234375 6.09765625 4.51234375 6.09765625 3.15234375 6.09765625 C2.91451172 7.11859375 2.91451172 7.11859375 2.671875 8.16015625 C0.86614884 15.66239974 -1.3172282 22.99061481 -3.6640625 30.3359375 C-4.4575781 32.85790294 -5.19426027 35.39840973 -5.875 37.953125 C-6.84765625 41.09765625 -6.84765625 41.09765625 -8.84765625 43.09765625 C-11.47265625 43.22265625 -11.47265625 43.22265625 -13.84765625 43.09765625 C-13.14389607 36.44997565 -11.31047166 30.19852448 -9.47265625 23.78515625 C-9.1684375 22.70814453 -8.86421875 21.63113281 -8.55078125 20.52148438 C-7.65951638 17.37729997 -6.75659877 14.23677209 -5.84765625 11.09765625 C-5.56374023 10.1123291 -5.27982422 9.12700195 -4.98730469 8.11181641 C-4.72208008 7.20608887 -4.45685547 6.30036133 -4.18359375 5.3671875 C-3.94946777 4.56514893 -3.7153418 3.76311035 -3.47412109 2.93676758 C-2.51911053 0.13314538 -2.51911053 0.13314538 0 0 Z " fill="#FCFCFC" transform="translate(290.84765625,206.90234375)"/>
<path d="M0 0 C5.76953125 -0.15722656 5.76953125 -0.15722656 7.84375 1.2578125 C10.0567736 4.59230076 9.571626 8.22511133 9 12 C6.90178139 19.42446583 4.23109775 27.06509551 -2 32 C-5.375 33.4375 -5.375 33.4375 -8 34 C-7.33562079 29.69436651 -6.43667916 25.51265558 -5.37109375 21.2890625 C-5.05849609 20.04511719 -4.74589844 18.80117188 -4.42382812 17.51953125 C-4.09510396 16.22134103 -3.76632727 14.92316411 -3.4375 13.625 C-3.10459918 12.30344044 -2.77191481 10.98182635 -2.43945312 9.66015625 C-1.62842751 6.43956177 -0.81520569 3.21953847 0 0 Z " fill="#F5F7FD" transform="translate(256,272)"/>
<path d="M0 0 C1.47265625 1.05859375 1.47265625 1.05859375 3 3 C4.16466862 11.65632079 3.55726976 20.37914755 -1 28 C-2.40625 29.78515625 -2.40625 29.78515625 -4 31 C-7.6875 30.6875 -7.6875 30.6875 -11 30 C-12.22265625 27.984375 -12.22265625 27.984375 -13 25 C-11.94653201 22.19473114 -10.87117784 19.84625135 -9.4375 17.25 C-9.06560547 16.54423828 -8.69371094 15.83847656 -8.31054688 15.11132812 C-7.22554137 13.06354477 -6.11713201 11.03039649 -5 9 C-4.45472656 7.99453125 -3.90945313 6.9890625 -3.34765625 5.953125 C-2.25093968 3.95678296 -1.13946678 1.97215404 0 0 Z " fill="#FDFCFC" transform="translate(321,221)"/>
<path d="M0 0 C0.33 0 0.66 0 1 0 C1.22646771 5.80404397 0.63814139 10.43979181 -1.1875 15.9375 C-1.41526123 16.63552734 -1.64302246 17.33355469 -1.87768555 18.05273438 C-5.2378989 28.01407007 -9.98973071 36.92693028 -19.38671875 42.38671875 C-25.09358305 44.94002538 -30.78180103 46.11201368 -37 45 C-39.625 43.375 -39.625 43.375 -41 41 C-41.25 37.75 -41.25 37.75 -41 35 C-40.360625 35.495 -39.72125 35.99 -39.0625 36.5 C-34.1126582 38.92441231 -29.77608739 38.68327847 -24.4765625 37.37890625 C-15.25774407 34.1877768 -9.94112669 28.46606977 -5.6875 19.8125 C-2.92444173 13.38293117 -1.28090565 6.86520482 0 0 Z " fill="#FAD8A8" transform="translate(230,218)"/>
<path d="M0 0 C3.05079478 -0.28781083 5.95706395 -0.41543631 9 0 C11.36539935 2.29372058 11.91093868 3.85280539 12.1640625 7.11328125 C12.1849814 9.07617129 12.09968485 11.03953122 12 13 C9.87717331 14.00460531 7.75166979 15.00355602 5.625 16 C4.44164062 16.556875 3.25828125 17.11375 2.0390625 17.6875 C-1 19 -1 19 -3 19 C-3 19.66 -3 20.32 -3 21 C-3.66 21 -4.32 21 -5 21 C-3.68882339 13.88879511 -1.98279484 6.95300057 0 0 Z " fill="#F9A82D" transform="translate(210,203)"/>
<path d="M0 0 C3.50588356 0.56398996 4.98982392 1.66963773 7.25 4.375 C7.77078125 4.98085937 8.2915625 5.58671875 8.828125 6.2109375 C10 8 10 8 10 11 C10.598125 11.0825 11.19625 11.165 11.8125 11.25 C14.62932273 12.21576779 15.47799132 13.48868567 17 16 C17 16.66 17 17.32 17 18 C17.58136719 18.24878906 18.16273438 18.49757812 18.76171875 18.75390625 C21.31739197 20.17669815 22.87821677 21.75074191 24.8125 23.9375 C25.43769531 24.62714844 26.06289062 25.31679687 26.70703125 26.02734375 C27.13371094 26.67832031 27.56039062 27.32929688 28 28 C27.67 28.99 27.34 29.98 27 31 C26.01 31 25.02 31 24 31 C22.0625 28.84765625 22.0625 28.84765625 20 26.0625 C17.21493201 22.07644606 17.21493201 22.07644606 13 20 C12.67 20.66 12.34 21.32 12 22 C11.15504811 20.92570402 10.32445142 19.84010798 9.5 18.75 C9.0359375 18.14671875 8.571875 17.5434375 8.09375 16.921875 C7 15 7 15 7 11 C5.26084364 8.77658619 5.26084364 8.77658619 3 6.75 C2.2575 6.04359375 1.515 5.3371875 0.75 4.609375 C0.1725 4.07828125 -0.405 3.5471875 -1 3 C-0.67 2.01 -0.34 1.02 0 0 Z " fill="#FB8322" transform="translate(130,212)"/>
<path d="M0 0 C4.55555556 0.55555556 4.55555556 0.55555556 6 2 C6.59996739 7.87968045 5.3045799 12.19233359 2 17 C-1.6441774 19.4294516 -3.71241272 19.16179575 -8 19 C-6.78043647 12.06774416 -5.11461709 5.11461709 0 0 Z " fill="#FAF9FA" transform="translate(250,217)"/>
<path d="M0 0 C1.32 0.33 2.64 0.66 4 1 C3.50066223 8.49006655 2.51960605 18.48039395 -3 24 C-3.99 24 -4.98 24 -6 24 C-8.29744637 19.40510727 -7.20196001 14.03137003 -5.75 9.3125 C-4.41809671 5.62905453 -2.69861432 2.88472565 0 0 Z " fill="#F6F7FD" transform="translate(298,283)"/>
<path d="M0 0 C0.66 0.33 1.32 0.66 2 1 C-0.64 5.62 -3.28 10.24 -6 15 C-6.33 14.34 -6.66 13.68 -7 13 C-8.98 13.99 -8.98 13.99 -11 15 C-11 17.64 -11 20.28 -11 23 C-14.18276076 24.59138038 -17.5353388 24.39713508 -21 24 C-23.5 22.625 -23.5 22.625 -25 21 C-25 20.34 -25 19.68 -25 19 C-23.783125 18.773125 -22.56625 18.54625 -21.3125 18.3125 C-16.98168698 17.21066771 -14.78916409 15.58606811 -12 12 C-11.5875 10.845 -11.175 9.69 -10.75 8.5 C-8.38196737 3.76393474 -4.92723265 1.79512081 0 0 Z " fill="#F4AA3C" transform="translate(383,282)"/>
<path d="M0 0 C0.33 0 0.66 0 1 0 C0.21508064 7.84919357 -2.02408592 12.77107518 -8 18 C-10.90541905 18.96847302 -12.96637454 19.19582812 -16 19.25 C-16.86625 19.27578125 -17.7325 19.3015625 -18.625 19.328125 C-21 19 -21 19 -22.80078125 17.68359375 C-24.58681517 15.17616502 -24.19917578 12.98763676 -24 10 C-22.515 10.99 -22.515 10.99 -21 12 C-16.50496969 12.58663955 -12.33080494 12.5496803 -8.125 10.8125 C-4.50611398 7.7258031 -1.93086953 4.34445645 0 0 Z " fill="#F7D7A8" transform="translate(383,244)"/>
<path d="M0 0 C1.65 0 3.3 0 5 0 C4.566875 1.794375 4.566875 1.794375 4.125 3.625 C2.69217536 10.02153856 1.86816562 16.50722946 1 23 C-2.96 23.495 -2.96 23.495 -7 24 C-5.08927776 15.83600499 -2.76477561 7.9153982 0 0 Z " fill="#F3F4FB" transform="translate(322,285)"/>
<path d="M0 0 C0.33 0 0.66 0 1 0 C0.66503302 7.23528679 -0.55086856 13.45848111 -5.75 18.796875 C-11.51600346 23.84212803 -11.51600346 23.84212803 -15.9375 24.3125 C-19 24 -19 24 -20.875 22.125 C-22 20 -22 20 -22 18 C-21.41992188 17.97421875 -20.83984375 17.9484375 -20.2421875 17.921875 C-14.03608089 17.4712666 -9.85784695 16.27064706 -5.59375 11.390625 C-2.86111753 7.80007303 -1.17992177 4.39789025 0 0 Z " fill="#FAD9A9" transform="translate(264,225)"/>
<path d="M0 0 C0.33 0 0.66 0 1 0 C1.0816082 2.37570543 1.14077222 4.74855841 1.1875 7.125 C1.21263672 7.79015625 1.23777344 8.4553125 1.26367188 9.140625 C1.33325581 13.8723325 0.43536103 16.96355779 -2 21 C-3 22 -3 22 -5.5 22.125 C-8 22 -8 22 -9 21 C-8.65695929 15.21210036 -6.88647503 11.37559397 -3.9375 6.5625 C-3.56044922 5.92634766 -3.18339844 5.29019531 -2.79492188 4.63476562 C-1.87359498 3.08367098 -0.93823407 1.54092657 0 0 Z " fill="#F7F4F1" transform="translate(387,285)"/>
<path d="M0 0 C2.70313576 -0.21917317 4.43958382 -0.32851983 6.8125 1.0625 C8.66108074 4.07860542 8.2986474 6.5356901 8 10 C7 12.9375 7 12.9375 6 15 C0.25 14.25 0.25 14.25 -2 12 C-2.01171875 9.94140625 -2.01171875 9.94140625 -1.6875 7.5625 C-1.58824219 6.78003906 -1.48898437 5.99757812 -1.38671875 5.19140625 C-1 3 -1 3 0 0 Z " fill="#4762DF" transform="translate(299,194)"/>
<path d="M0 0 C1.48828125 1.01953125 1.48828125 1.01953125 3 3 C3.2172101 5.64996326 3.28351554 8.05076558 3.1875 10.6875 C3.16719727 11.7403418 3.16719727 11.7403418 3.14648438 12.81445312 C3.11120182 14.54329829 3.05739583 16.27174765 3 18 C2.67 18 2.34 18 2 18 C2 14.04 2 10.08 2 6 C1.34 6 0.68 6 0 6 C-0.2475 6.84175781 -0.495 7.68351563 -0.75 8.55078125 C-2.13949221 12.38491133 -3.93727235 15.68609455 -6 19.1875 C-6.35578125 19.80302734 -6.7115625 20.41855469 -7.078125 21.05273438 C-8.64882127 23.7574968 -10.26453031 26.39679546 -12 29 C-13.14582526 25.56299653 -13.02002937 25.0484838 -11.5234375 21.42578125 C-10.81991767 20.04816637 -10.10306382 18.67730255 -9.375 17.3125 C-9.00761719 16.60222656 -8.64023437 15.89195312 -8.26171875 15.16015625 C-5.60615752 10.05402447 -2.87947238 4.9837022 0 0 Z " fill="#F7D7AA" transform="translate(321,221)"/>
<path d="M0 0 C0.74886475 0.00523682 1.49772949 0.01047363 2.26928711 0.01586914 C3.07817383 0.0190918 3.88706055 0.02231445 4.72045898 0.02563477 C5.5705957 0.03401367 6.42073242 0.04239258 7.29663086 0.05102539 C8.15063477 0.05553711 9.00463867 0.06004883 9.88452148 0.06469727 C12.00108749 0.07652166 14.11761771 0.0944577 16.23413086 0.11352539 C16.23413086 0.44352539 16.23413086 0.77352539 16.23413086 1.11352539 C14.58413086 1.11352539 12.93413086 1.11352539 11.23413086 1.11352539 C11.23413086 1.77352539 11.23413086 2.43352539 11.23413086 3.11352539 C9.18311545 5.51042209 6.91954594 7.4593097 4.23413086 9.11352539 C-0.86020876 9.01918577 -0.86020876 9.01918577 -2.76586914 7.11352539 C-2.89086914 4.11352539 -2.89086914 4.11352539 -2.76586914 1.11352539 C-1.76586914 0.11352539 -1.76586914 0.11352539 0 0 Z " fill="#F97B17" transform="translate(110.765869140625,214.886474609375)"/>
<path d="M0 0 C0.33 0 0.66 0 1 0 C1.07761068 3.72531268 0.99249376 7.05004161 0.4375 10.75 C-0.19670204 15.17203888 0.3093472 19.36244786 0.84375 23.77734375 C0.8953125 24.51082031 0.946875 25.24429688 1 26 C0 27 0 27 -2.5 27.125 C-5 27 -5 27 -6 26 C-5.67790656 16.98138364 -2.6609459 8.55233904 0 0 Z " fill="#ECDED2" transform="translate(300,223)"/>
<path d="M0 0 C6.8359375 -0.1953125 6.8359375 -0.1953125 9 0 C11 2 11 2 11 6 C9.40084119 6.69906942 7.79544955 7.38389468 6.1875 8.0625 C5.29417969 8.44535156 4.40085938 8.82820312 3.48046875 9.22265625 C1 10 1 10 -2 9 C-1.34 6.03 -0.68 3.06 0 0 Z " fill="#FBDFB7" transform="translate(210,203)"/>
<path d="M0 0 C1.65 0.33 3.3 0.66 5 1 C4.59287177 6.19088499 3.91382777 9.41232454 0 13 C-2.75 13.3125 -2.75 13.3125 -5 13 C-3.25740319 3.40546697 -3.25740319 3.40546697 0 0 Z " fill="#F7F6FA" transform="translate(363,283)"/>
<path d="M0 0 C4.55555556 0.55555556 4.55555556 0.55555556 6 2 C6.04080783 3.99958364 6.04254356 6.00045254 6 8 C3.03 7.505 3.03 7.505 0 7 C-2.78644563 10.90102388 -4.68139111 14.38486888 -6 19 C-6.66 19 -7.32 19 -8 19 C-6.78043647 12.06774416 -5.11461709 5.11461709 0 0 Z " fill="#F1D4AE" transform="translate(250,217)"/>
<path d="M0 0 C0.33 0 0.66 0 1 0 C1.4701848 6.51025112 -0.25033588 11.84387306 -2.25 18 C-2.89395996 20.04232888 -3.5358841 22.08530078 -4.17578125 24.12890625 C-4.48854004 25.12422363 -4.80129883 26.11954102 -5.12353516 27.14501953 C-6.93525782 33.04649161 -8.47851795 39.01802397 -10 45 C-10.33 45 -10.66 45 -11 45 C-11.26799358 38.86051071 -10.42356787 33.965835 -8.59375 28.125 C-8.34959351 27.31506592 -8.10543701 26.50513184 -7.85388184 25.6706543 C-7.07955219 23.11050447 -6.29007448 20.55532935 -5.5 18 C-4.96903996 16.25421375 -4.43908202 14.5081224 -3.91015625 12.76171875 C-2.61832844 8.50419773 -1.31290409 4.25106662 0 0 Z " fill="#E4C9AE" transform="translate(287,205)"/>
<path d="M0 0 C0.33 2.64 0.66 5.28 1 8 C-2.18276076 9.59138038 -5.5353388 9.39713508 -9 9 C-11.5 7.625 -11.5 7.625 -13 6 C-13 5.34 -13 4.68 -13 4 C-11.1128125 3.566875 -11.1128125 3.566875 -9.1875 3.125 C-5.89382293 2.36907411 -3.20782286 0 0 0 Z " fill="#F5F2F1" transform="translate(371,297)"/>
<path d="M0 0 C4.875 0.875 4.875 0.875 6 2 C5.30232558 8.39534884 5.30232558 8.39534884 4 11 C0.125 10.125 0.125 10.125 -1 9 C-0.91062197 7.47480724 -0.75462854 5.95318071 -0.5625 4.4375 C-0.46066406 3.61121094 -0.35882813 2.78492188 -0.25390625 1.93359375 C-0.17011719 1.29550781 -0.08632813 0.65742188 0 0 Z " fill="#4C67E2" transform="translate(279,266)"/>
<path d="M0 0 C3.69230769 0.69230769 3.69230769 0.69230769 5 2 C4.82364548 4.69082872 4.38164079 7.32851446 4 10 C3.01 10.33 2.02 10.66 1 11 C0.01 10.34 -0.98 9.68 -2 9 C-1.125 1.125 -1.125 1.125 0 0 Z " fill="#4965E2" transform="translate(346,266)"/>
<path d="M0 0 C3.79549259 0.54581199 5.30979295 2.05409295 7.75 4.9375 C8.67039063 6.00291016 8.67039063 6.00291016 9.609375 7.08984375 C11 9 11 9 11 11 C11.66 11.33 12.32 11.66 13 12 C12.34 12 11.68 12 11 12 C10.67 12.99 10.34 13.98 10 15 C9.649375 14.34 9.29875 13.68 8.9375 13 C6.73436611 9.58869591 4.17547152 6.74693914 1.42578125 3.76953125 C0 2 0 2 0 0 Z " fill="#FDE6D4" transform="translate(143,232)"/>
<path d="M0 0 C1.48828125 1.01953125 1.48828125 1.01953125 3 3 C3.2172101 5.64996326 3.28351554 8.05076558 3.1875 10.6875 C3.17396484 11.38939453 3.16042969 12.09128906 3.14648438 12.81445312 C3.11120182 14.54329829 3.05739583 16.27174765 3 18 C2.67 18 2.34 18 2 18 C2 14.04 2 10.08 2 6 C1.34 6 0.68 6 0 6 C-0.33 6.99 -0.66 7.98 -1 9 C-3.0625 10.1875 -3.0625 10.1875 -5 11 C-3.55049545 7.2089881 -1.84827434 3.6125362 0 0 Z " fill="#E0CAB6" transform="translate(321,221)"/>
<path d="M0 0 C0.33 0 0.66 0 1 0 C1.60835343 7.60441782 -0.01759051 14.98581472 -3 22 C-5.140625 23.4140625 -5.140625 23.4140625 -7 24 C-5 18 -5 18 -4.26953125 15.9140625 C-2.45706723 10.66987726 -1.09294312 5.4389993 0 0 Z " fill="#E9D0B6" transform="translate(230,218)"/>
<path d="M0 0 C-3.44615385 5.78461538 -3.44615385 5.78461538 -6.25 6.875 C-6.8275 6.91625 -7.405 6.9575 -8 7 C-8.33 5.35 -8.66 3.7 -9 2 C-3.375 -1.125 -3.375 -1.125 0 0 Z " fill="#F8AA35" transform="translate(351,299)"/>
<path d="M0 0 C2.64 0.33 5.28 0.66 8 1 C8 2.32 8 3.64 8 5 C5.03 5 2.06 5 -1 5 C-0.67 3.35 -0.34 1.7 0 0 Z " fill="#FCAA2B" transform="translate(289,201)"/>
<path d="M0 0 C1.32 0 2.64 0 4 0 C4 0.66 4 1.32 4 2 C4.66 2 5.32 2 6 2 C5.67 3.32 5.34 4.64 5 6 C2.03 5.505 2.03 5.505 -1 5 C-1 1 -1 1 0 0 Z " fill="#FA7D17" transform="translate(164,238)"/>
<path d="M0 0 C0.66 0 1.32 0 2 0 C0.43247063 6.36416924 -1.14264467 12.71356657 -3 19 C-3.33 19 -3.66 19 -4 19 C-4.36182611 12.48713003 -3.29943477 7.11196911 -1 1 C-0.67 0.67 -0.34 0.34 0 0 Z " fill="#EBD2B4" transform="translate(280,231)"/>
<path d="M0 0 C2.31 1.98 4.62 3.96 7 6 C6.67 6.99 6.34 7.98 6 9 C5.34 9 4.68 9 4 9 C2.4921875 7.25 2.4921875 7.25 0.875 5 C0.33617187 4.2575 -0.20265625 3.515 -0.7578125 2.75 C-1.37269531 1.88375 -1.37269531 1.88375 -2 1 C-1.34 0.67 -0.68 0.34 0 0 Z " fill="#FDE2CB" transform="translate(132,218)"/>
<path d="M0 0 C4.875 4.75 4.875 4.75 6 7 C5.34 7 4.68 7 4 7 C3.67 7.66 3.34 8.32 3 9 C1.35 6.69 -0.3 4.38 -2 2 C-1.34 1.34 -0.68 0.68 0 0 Z " fill="#FD9E22" transform="translate(139,225)"/>
<path d="M0 0 C0.33 0 0.66 0 1 0 C1.17673419 4.5067218 1.13551182 7.96625544 -1 12 C-1.99 12.495 -1.99 12.495 -3 13 C-2.68991116 11.39536551 -2.37683713 9.79130769 -2.0625 8.1875 C-1.88847656 7.29417969 -1.71445312 6.40085938 -1.53515625 5.48046875 C-1 3 -1 3 0 0 Z " fill="#DCC7B7" transform="translate(360,203)"/>
<path d="M0 0 C-1.41519715 2.0343459 -2.54982123 2.90410393 -4.98046875 3.421875 C-6.98176954 3.66273952 -8.9909944 3.83532741 -11 4 C-3.77464789 -1.88732394 -3.77464789 -1.88732394 0 0 Z " fill="#F5E9DB" transform="translate(210,193)"/>
<path d="M0 0 C0.66 0.33 1.32 0.66 2 1 C0.68 3.64 -0.64 6.28 -2 9 C-2.66 7.68 -3.32 6.36 -4 5 C-2.68 3.35 -1.36 1.7 0 0 Z " fill="#FAD39A" transform="translate(312,241)"/>
<path d="M0 0 C2.0625 0.4375 2.0625 0.4375 4 1 C3.67 2.65 3.34 4.3 3 6 C2.01 5.67 1.02 5.34 0 5 C-0.75 3 -0.75 3 -1 1 C-0.67 0.67 -0.34 0.34 0 0 Z " fill="#F6D9B1" transform="translate(197,203)"/>
<path d="M0 0 C1.32 0.33 2.64 0.66 4 1 C3.34 2.32 2.68 3.64 2 5 C0.68 4.34 -0.64 3.68 -2 3 C-1.34 2.01 -0.68 1.02 0 0 Z " fill="#EFBE7B" transform="translate(303,253)"/>
<path d="M0 0 C-1.39332574 3.36720387 -2.9789286 4.9859524 -6 7 C-6 4 -6 4 -4.125 1.8125 C-2 0 -2 0 0 0 Z " fill="#FEF1E7" transform="translate(122,218)"/>
<path d="M0 0 C0.66 0.33 1.32 0.66 2 1 C0.90716423 2.03295436 -0.19970579 3.05107835 -1.3125 4.0625 C-1.92738281 4.63097656 -2.54226562 5.19945312 -3.17578125 5.78515625 C-3.77777344 6.18605469 -4.37976563 6.58695313 -5 7 C-5.99 6.67 -6.98 6.34 -8 6 C-6.60624928 3.21249856 -4.83755139 3.10733713 -2 2 C-1.34 1.34 -0.68 0.68 0 0 Z " fill="#FEB147" transform="translate(148,217)"/>
<path d="M0 0 C0.99 0.33 1.98 0.66 3 1 C1.8125 2.5 1.8125 2.5 0 4 C-2.6875 4.1875 -2.6875 4.1875 -5 4 C-3.36587557 2.29159719 -2.13093906 1.06546953 0 0 Z " fill="#F7AD3E" transform="translate(363,292)"/>
<path d="M0 0 C0.33 0 0.66 0 1 0 C1 2.97 1 5.94 1 9 C-0.32 9.33 -1.64 9.66 -3 10 C-2.690625 9.46375 -2.38125 8.9275 -2.0625 8.375 C-0.82172561 5.6015043 -0.4090325 2.99957163 0 0 Z " fill="#DCC8BB" transform="translate(331,241)"/>
</svg>
